<?xml version="1.0" standalone="no"?>
<!DOCTYPE svg PUBLIC "-//W3C//DTD SVG 20010904//EN"
 "http://www.w3.org/TR/2001/REC-SVG-20010904/DTD/svg10.dtd">
<svg version="1.0" xmlns="http://www.w3.org/2000/svg"
 width="1280.000000pt" height="1280.000000pt" viewBox="0 0 1280.000000 1280.000000"
 preserveAspectRatio="xMidYMid meet">
<g transform="translate(0.000000,1280.000000) scale(0.100000,-0.100000)"
fill="#000000" stroke="none">
<path d="M6220 10936 c-130 -23 -234 -55 -1620 -491 -745 -234 -1893 -595
-2550 -802 -657 -207 -1199 -378 -1204 -381 -14 -8 9 -17 355 -138 1612 -560
2098 -725 2165 -731 92 -9 122 6 227 111 251 251 579 379 1257 490 487 81 884
115 1400 123 891 13 1712 -84 2234 -264 244 -84 406 -172 698 -378 88 -62 141
-80 213 -72 28 3 451 141 940 307 490 165 1040 351 1222 413 183 62 333 115
333 119 0 4 -17 16 -37 27 -21 10 -918 294 -1993 629 -1075 336 -2265 709
-2645 828 l-690 216 -115 4 c-69 2 -145 -2 -190 -10z"/>
<path d="M1142 8997 l-22 -12 -7 -685 c-3 -377 -6 -732 -7 -790 -1 -79 4 -117
17 -152 46 -118 191 -165 256 -82 42 53 44 104 38 789 -8 759 -9 768 -99 870
-56 64 -127 89 -176 62z"/>
<path d="M5979 8949 c-496 -18 -1050 -87 -1494 -185 -392 -87 -702 -233 -809
-382 -75 -103 -71 -24 -69 -1286 1 -620 4 -1130 6 -1133 3 -2 57 7 121 21 182
41 306 56 521 63 290 8 510 -10 1095 -92 612 -86 907 -112 1166 -101 190 8
267 17 539 67 653 119 1250 146 1865 84 80 -8 155 -15 168 -15 l22 0 -2 1128
-3 1127 -22 57 c-73 193 -232 293 -612 389 -595 150 -1204 234 -1856 259 -292
11 -327 11 -636 -1z"/>
<path d="M1159 7084 c-126 -38 -165 -197 -73 -298 55 -60 69 -93 67 -166 -1
-84 -25 -143 -114 -281 -38 -60 -77 -128 -85 -151 -73 -207 123 -390 376 -349
159 26 237 74 260 161 24 87 0 157 -133 400 -96 177 -96 262 -2 386 70 92 65
173 -17 251 -62 60 -176 79 -279 47z"/>
<path d="M8750 4810 c-388 -155 -1006 -400 -1373 -546 -529 -211 -671 -271
-684 -290 -12 -19 -15 -43 -11 -107 7 -135 64 -235 244 -429 128 -137 179
-207 227 -306 52 -109 61 -199 28 -297 -20 -59 -21 -67 -7 -93 21 -41 78 -66
132 -58 42 5 2784 793 2793 802 11 11 -150 558 -254 864 -82 240 -198 546
-235 620 -35 69 -77 109 -121 115 -27 4 -169 -49 -739 -275z"/>
<path d="M9770 4992 c0 -56 42 -186 116 -359 123 -288 229 -627 279 -893 17
-93 27 -110 52 -94 60 38 80 147 62 334 -19 199 -86 418 -219 712 -92 203
-139 272 -211 309 -56 28 -79 25 -79 -9z"/>
<path d="M10096 4996 c-14 -14 -26 -34 -26 -44 0 -11 42 -102 93 -203 132
-262 187 -443 187 -623 0 -39 5 -89 11 -111 14 -50 70 -108 101 -103 23 3 23
4 22 153 -2 225 -48 420 -150 635 -46 97 -156 271 -192 304 -20 18 -21 18 -46
-8z"/>
<path d="M6440 3930 c-31 -24 -72 -36 -173 -50 -96 -14 -137 -31 -170 -69 -74
-88 -57 -235 42 -369 l32 -43 38 30 c91 72 260 130 379 131 35 0 52 4 52 12 0
55 -138 366 -166 375 -5 1 -20 -6 -34 -17z"/>
<path d="M5675 3683 c-11 -3 -168 -54 -350 -113 -720 -236 -1299 -406 -2039
-597 -268 -70 -301 -81 -319 -105 -26 -34 -33 -112 -18 -189 31 -156 188 -657
290 -924 62 -160 172 -416 190 -442 25 -35 78 -56 123 -49 43 7 2525 997 2574
1027 17 10 36 30 42 44 27 59 9 113 -87 259 -94 145 -106 229 -71 519 25 207
21 279 -21 394 -28 73 -106 156 -164 172 -40 11 -113 13 -150 4z"/>
<path d="M6466 3389 c-123 -29 -261 -144 -319 -266 -30 -64 -32 -75 -32 -178
1 -91 5 -120 24 -168 53 -133 167 -254 281 -299 262 -103 577 93 631 392 14
83 2 169 -38 250 -32 67 -148 185 -219 222 -97 52 -227 71 -328 47z"/>
<path d="M2780 2662 c-50 -25 -80 -74 -80 -133 0 -71 45 -290 95 -465 68 -237
212 -580 278 -665 33 -42 100 -73 143 -64 19 3 37 12 40 18 2 7 -24 78 -60
157 -160 362 -283 746 -356 1113 -6 31 -14 57 -18 57 -4 0 -23 -8 -42 -18z"/>
<path d="M7057 2525 c-20 -7 -62 -35 -94 -62 -32 -28 -73 -58 -91 -67 -18 -9
-30 -21 -26 -27 3 -6 114 -162 246 -347 139 -196 247 -338 257 -340 27 -5 41
20 51 89 15 103 61 142 184 156 l68 8 -182 235 c-180 232 -256 321 -295 342
-37 21 -82 25 -118 13z"/>
<path d="M2482 2283 c10 -303 102 -587 274 -844 96 -142 140 -168 164 -93 20
61 2 117 -109 338 -136 269 -168 365 -181 529 -5 68 -14 135 -19 149 -14 37
-68 78 -103 78 l-31 0 5 -157z"/>
<path d="M6343 2359 c-32 -12 -39 -32 -54 -149 -14 -111 -18 -459 -6 -522 l8
-37 52 27 c43 22 65 26 132 26 70 1 88 -3 144 -32 35 -18 65 -31 66 -30 1 2
-1 147 -4 323 l-6 320 -70 2 c-78 3 -149 23 -204 57 -26 17 -42 21 -58 15z"/>
</g>
</svg>
